<?xml version="1.0" encoding="utf-8"?>
<!-- Generator: Adobe Illustrator 24.2.0, SVG Export Plug-In . SVG Version: 6.00 Build 0)  -->
<svg version="1.1" id="Capa_1" xmlns="http://www.w3.org/2000/svg" xmlns:xlink="http://www.w3.org/1999/xlink" x="0px" y="0px"
	 viewBox="0 0 595.28 841.89" style="enable-background:new 0 0 595.28 841.89;" xml:space="preserve">
<style type="text/css">
	.st0{fill-rule:evenodd;clip-rule:evenodd;fill:#E41B23;}
	.st1{fill-rule:evenodd;clip-rule:evenodd;}
</style>
<g>
	<path class="st0" d="M222.45,405.89h35.19l-15.45,30.77h-3.35l-11.07-6.42h4.16c6,0,9.7-2.19,11.28-5.33l3-6.04
		c1.81-3.6-0.04-6.13-3.74-7.35c-1.48-0.49-3.24-0.9-5.25-0.9h-17.14L222.45,405.89L222.45,405.89z M225.86,436.66H207l0.69-1.38
		l7.59-15.09c1.42-2.83,3.22-3.28,5.23-3.28h13.84c2.55,0,2.79,1.15,2,2.73l-1.05,2.06c-0.85,1.49-1.85,2.13-3.83,2.13h-13.32
		l-3.27,6.57L225.86,436.66L225.86,436.66z"/>
	<polygon class="st1" points="332.54,430.53 337.74,430.53 344.52,417.02 339.32,417.02 332.54,430.53 	"/>
	<path class="st1" d="M340.84,427.7c-0.69,1.37-0.19,2.83,3.13,2.83h15.23l4.15-8.29h-11.54l-1.58,3.14h6.35l-0.89,1.79h-8.13
		c-0.63-0.02-1.58-0.06-1.12-0.97l2.22-4.43c0.66-1.31,1.27-1.45,2.47-1.45h13.29l1.66-3.3h-15.62c-2.14,0-4.55,0.61-5.68,2.85
		L340.84,427.7L340.84,427.7z"/>
	<path class="st1" d="M313.28,427.7c-0.69,1.37-0.19,2.83,3.13,2.83h14.11l1.69-3.36h-12.2c-0.63-0.02-1.58-0.06-1.12-0.97
		l0.42-0.83h7.91l1.6-3.2h-7.91l0.2-0.4c0.66-1.31,1.27-1.45,2.47-1.45h12.04l1.66-3.3h-14.4c-2.14,0-4.55,0.61-5.68,2.85
		L313.28,427.7L313.28,427.7z"/>
	<path class="st1" d="M296.13,427.7c-0.69,1.37-0.19,2.83,3.13,2.83h11.58l1.69-3.36h-9.58c-0.63-0.02-1.5-0.21-1.04-1.12l4.53-9.03
		h-4.95L296.13,427.7L296.13,427.7z"/>
	<path class="st1" d="M270.59,430.53h5.38l1.89-1.69h12.1l0.16,1.69h4.95l-1.27-13.51l-4.95,0c-2.06,0.02-3.79,0.75-5.65,2.39
		L270.59,430.53L270.59,430.53z M281.47,425.62l4.8-4.29c0.96-0.85,1.88-1.27,2.5-1.27h0.36l0.52,5.56H281.47L281.47,425.62z"/>
	<polygon class="st1" points="361.17,430.53 366.37,430.53 368.96,425.38 377.6,425.38 375.02,430.53 380.22,430.53 387,417.02 
		381.8,417.02 379.18,422.24 370.54,422.24 373.16,417.02 367.96,417.02 361.17,430.53 	"/>
	<path class="st1" d="M250.26,430.53h4.98l4.45-8.86v0c0.68-1.35,1.53-1.61,2.92-1.61h6.47c1.26,0,1.47,0.53,1.08,1.3l-0.54,1.07
		c-0.42,0.69-1.02,1.01-2.14,1.01h-6.38l-1.68,3.35l6.54,3.74h6.56l-6.64-3.84h2.21c3.14,0,4.74-1.09,5.52-2.64l1.44-2.87
		c1.22-2.43-0.7-4.16-4.02-4.16h-9.54c-2.98,0-4.59,0.26-5.98,3.04L250.26,430.53L250.26,430.53z"/>
</g>
</svg>
