<?xml version="1.0" encoding="utf-8"?>
<!-- Generator: Adobe Illustrator 24.2.0, SVG Export Plug-In . SVG Version: 6.00 Build 0)  -->
<svg version="1.1" id="Capa_1" xmlns="http://www.w3.org/2000/svg" xmlns:xlink="http://www.w3.org/1999/xlink" x="0px" y="0px"
	 viewBox="0 0 283.46 171.2" style="enable-background:new 0 0 283.46 171.2;" xml:space="preserve">
<style type="text/css">
	.st0{fill:#ED1C24;}
	.st1{stroke:#FFFFFF;stroke-width:1.7145;stroke-miterlimit:10;}
	.st2{display:none;}
	.st3{display:inline;}
	.st4{fill:#231F20;}
	.st5{display:inline;fill:#ED1C2E;}
</style>
<g>
	<path class="st0" d="M-20.21-84.11c0,0,0.07-0.3,0.34-0.26c0.26,0.04,0.41,0.08,0.41,0.08l0.34-0.19c0,0,0-0.64,0.08-0.64
		c0.07,0,0.15,0.11,0.22-0.04c0.08-0.15,0.11-0.34,0.11-0.34s0.19-0.15,0.15-0.34c-0.03-0.18-0.12-0.37-0.12-0.37
		s0.28-0.12,0.31-0.26c0.03-0.15,0.07-0.41,0.07-0.41l-0.29-0.41l-0.05-0.33l0.15-0.27c0.14-0.25,0.22-0.29,0.22-0.52
		c0-0.22-0.04-0.34,0.11-0.45c0.15-0.1,0.42-0.22,0.56-0.33c0.15-0.11,0.15,0.23,0.6-0.37c0.46-0.6,0.07-0.63,0.52-0.75
		c0.46-0.11,0.82-0.04,0.97-0.34c0.15-0.3,0.15-0.38,0.27-0.67c0.11-0.3,0.14-0.56,0.34-0.64c0.17-0.08,1-0.19,0.97-0.38
		c-0.04-0.19,0.23-0.64,0.29-0.93c0.09-0.3,0.2-0.26,0.31-0.34c0.11-0.08,0.34-0.34,0.52-0.42c0.18-0.08,0.3-0.11,0.34-0.34
		c0.03-0.22-0.15-0.71,0.11-0.81c0.26-0.12,0.68-0.19,0.68-0.19s-0.34-0.38,0.15-0.75c0.49-0.37,0.71-0.19,0.75-0.31
		c0.04-0.11,0.1-0.22,0.19-0.37c0.07-0.15,0.11-0.49,0.11-0.64c0-0.16-0.22-0.03,0-0.26c0.22-0.23,0.15,0,0.31-0.3
		c0.14-0.3,0.37-0.38,0.55-0.5c0.2-0.1,0.34-0.22,0.34-0.22l0.15-0.3l0.34-0.22c0,0,0.07-0.27,0.07-0.46c0-0.19-0.07-0.34,0.04-0.34
		c0.11,0,0.22,0.15,0.37,0c0.15-0.15,0.45-0.07,0.45-0.41c0-0.34-0.08-0.53-0.08-0.68c0-0.15,0.23-0.45,0.23-0.45
		s-0.15-0.38-0.04-0.38c0.12,0,0.34-0.04,0.34-0.04s0.12,0.19,0.38,0.16c0.26-0.04,0.37-0.04,0.37-0.04s0.16,0.12,0.41,0.22
		c0.26,0.12,0.64,0.26,0.64,0.38c0,0.12,0.07,0.19,0,0.42c-0.09,0.22,0.4,1.09,0.37,1.23c-0.03,0.16-0.03,0.78-0.03,0.78
		s-0.23,0.53-0.19,0.75c0.03,0.23,0.1,0.45,0.07,0.61c-0.04,0.14,0-0.35-0.15,0.4c-0.15,0.75-0.23,0.67-0.19,0.94
		c0.03,0.26,0.3,0.53,0.3,0.71c0,0.19,0.12,0.45,0.07,0.63c-0.03,0.19-0.07,0.12-0.18,0.49c-0.11,0.37,0.3,0.52,0.33,0.71
		c0.05,0.19,0.42,0.45,0.3,0.75c-0.11,0.3-0.15,0.56-0.15,0.56s0.08,0.27,0.19,0.49c0.11,0.23,0.38,0.38,0.38,0.38l0.11,0.22
		l0.41,1.42l-0.04,0.9l-0.34,0.75c0,0,0.12-0.22-0.18,0.27c-0.3,0.48-1.2,1.53-1.39,1.72c-0.19,0.19-0.49,0.38-0.6,0.6
		c-0.11,0.22-0.16,0.6-0.49,0.9c-0.34,0.3-0.37,0.04-0.6,0.6c-0.22,0.56-0.03,0.49-0.3,0.83c-0.26,0.33-0.71,1.31-1.12,1.5
		c-0.41,0.18-0.49,0.15-0.67,0.45c-0.19,0.3-0.6,1.3-0.98,1.61c-0.37,0.29-0.48,0.49-0.67,0.71c-0.19,0.22-0.68,0.86-0.97,1.13
		c-0.31,0.26-0.75,0.08-0.86,0.57c-0.12,0.48,0.07,0.85-0.19,1.16c-0.27,0.3-0.22,0.45-0.49,0.56c-0.26,0.11-0.82,0.22-0.9,0.53
		c-0.08,0.3-0.34,0.63-0.34,0.83c0,0.19-0.3,0.52-0.48,0.59c-0.19,0.08-0.3,0.38-0.3,0.38l-0.23,0.68c0,0-0.37,0.3-0.56,0.38
		c-0.18,0.08-0.52,0.23-0.6,0.42c-0.07,0.18,0.12-0.04-0.11,0.67c-0.23,0.71-0.53,1.01-0.53,1.01s-0.08,0.3-0.38,0.41
		c-0.3,0.11-0.48,0.03-0.48,0.41c0,0.37,0.03,0.53-0.08,0.68c-0.11,0.14-0.76,0.14-0.76,0.14l-0.07,0.9c0,0,0.3-0.3,0.49,0.16
		c0.19,0.45,0.82,0.71,0.82,0.71l0.04-1.28h0.68c0.11,0,0.75-0.03,0.75-0.03l-0.05,0.34l0.87-0.04v-0.6l0.04-0.63
		c0,0-0.08,0.03,0.37,0c0.46-0.05,0.65-0.12,0.65-0.12s0.11-0.11,0.11-0.26c0-0.15,0.11-0.49,0.11-0.49s0.27-0.11,0.33,0.04
		c0.08,0.15,0,0.22,0.23,0.26c0.22,0.03,0.11,0.3,0.56-0.08c0.45-0.37,0.23-0.3,0.52-0.42c0.3-0.11,0.27-0.22,0.52-0.18
		c0.26,0.04,0.37-1.05,0.37-1.05s0.34-0.03,0.64,0c0.3,0.05,0.56-0.59,0.79-0.74c0.23-0.15,0.5-0.31,0.82-0.46
		c0.34-0.15,1.1-0.34,1.39-0.53c0.3-0.18,0.53-0.37,0.64-0.6c0.11-0.23-0.27-0.11,0.49-0.45c0.75-0.34,0.93-0.94,1.3-1.09
		c0.38-0.15,0.97-0.37,1.06-0.53c0.07-0.14,0.22-0.33,0.49-0.49c0.26-0.15,0.89-0.27,1.42-0.45c0.52-0.18,1.12-0.41,1.32-0.52
		c0.18-0.12,0.74-0.75,0.9-0.79c0.15-0.04,0.56-0.23,0.71,0c0.14,0.23,0.26,0.34,0.53,0.34c0.25,0,0.37-0.76,0.93-0.76
		c0.58,0,0.61,0.12,1.09-0.03c0.5-0.15,0.68-0.19,0.94-0.53c0.27-0.34,0.53-0.48,0.72-0.52c0.19-0.04,1.01-0.19,1.09-0.08
		c0.06,0.11,0.74,1.05,0.89,1.24c0.16,0.19,3.01,4.98,3.35,5.43c0.33,0.46,1.08,2.03,1.08,2.59c0,0.56,0.19,1.46,0.11,1.92
		c-0.07,0.45-1.65,1.98-1.79,2.51c-0.16,0.53-0.97,1.46-1.24,1.95c-0.27,0.48-0.38,0.83-0.75,1.42c-0.38,0.6-4.04,6.59-4.46,7.15
		c-0.41,0.56-6.37,11.7-6.55,12.14c-0.19,0.46-2.63,5.55-3,6.19c-0.38,0.63-3.64,7.15-3.94,7.9c-0.3,0.76-0.82,2.74-1.09,3.33
		c-0.25,0.6-2.1,6.03-2.43,6.94c-0.33,0.89-0.45,1.3-0.74,1.64c-0.3,0.34-0.6,0.54-0.6,0.87c0,0.34,0.23,1.09,0,1.38
		c-0.22,0.31-0.6,0.75-0.6,1.13c0,0.37-0.15,2.66-0.15,3.36c0,0.72-0.03,2.93-0.3,3.45c-0.26,0.53-0.48,1.54-0.6,2.21
		c-0.12,0.68-0.22,7.5-0.3,8.32c-0.07,0.83,0.11,2.88,0.18,3.79c0.08,0.9,0.6,3.67,0.71,4.05c0.11,0.37,0.97,2.36,1.17,2.73
		c0.19,0.37,0.38,0.78,0.44,1.2c0.08,0.41,0.56,0.48,0.56,0.86c0,0.38,0.12,0.67,0.34,1.2c0.22,0.52,0.87,1.16,1.13,1.61
		c0.26,0.44,0.29,0.71,0.29,1.17c0,0.44,0.26,0.82-0.11,0.94c-0.38,0.11-0.71-0.08-0.79-0.22c-0.08-0.16-0.56-0.54-0.71-0.98
		c-0.16-0.46-0.34-1.2-0.34-1.2s-1.09-1.17-1.43-1.57c-0.34-0.41-0.27-0.23-0.57-0.72c-0.3-0.48-0.41-0.71-0.55-0.71
		c-0.16,0-0.27,0.34-0.68,0.29c-0.41-0.04-0.52-0.14-0.75-0.38c-0.23-0.22-0.49-1.12-1.09-1.65c-0.61-0.52-0.97-1.24-1.21-1.53
		c-0.22-0.3-0.1-0.41-0.22-0.87c-0.1-0.44-0.05-0.56-0.22-0.75c-0.19-0.17-0.86-0.9-0.86-0.9s-1.08-1.12-1.28-1.53
		c-0.19-0.41-0.74-1.38-0.86-1.69c-0.11-0.3-0.63-1.09-0.68-1.24c-0.05-0.15,0.07-0.46-0.11-0.59c-0.19-0.15-0.53,0.04-0.75-0.23
		c-0.24-0.26-0.12-0.63-0.38-0.82c-0.26-0.19-0.53-0.29-0.79-0.59c-0.26-0.3-0.6-0.83-0.75-1.1C-28.52,2-28.3,1.93-28.75,1.51
		c-0.44-0.42-0.52-0.45-0.59-0.78c-0.08-0.34-0.05-1.39-0.11-1.95c-0.08-0.57-0.38-0.91-0.38-0.91l0.44-0.53
		c0,0-0.22-0.67-0.18-1.08c0.04-0.41-0.08-2.88-0.15-3.22c-0.07-0.34-0.11-0.64-0.22-1.09c-0.11-0.45-0.34-0.41-0.11-0.79
		c0.22-0.37,0.11-0.49,0.41-0.49c0.3,0,0.35-0.3,0.6,0.08c0.26,0.37,0.68,0.68,0.68,0.68s0.71,0.03,0.75-0.16
		c0.04-0.19-0.15-0.67-0.38-0.85c-0.22-0.19-0.56,0.03-0.49-0.5c0.08-0.52,0.08-0.52,0.19-0.67c0.11-0.15,0.11-0.9,0.11-0.9
		s-0.71-0.04-0.9-0.11c-0.19-0.07-0.31-0.49-0.31-0.78c0-0.3,0.23-0.35,0.39-0.5c0.14-0.15,0.45-0.23,0.6-0.53
		c0.14-0.3,0.41-0.56,0.33-0.93c-0.08-0.38,0-1.43,0-1.43s0.6-0.34,0.63-0.49c0.04-0.15,0.04-0.15,0.08-0.45
		c0.05-0.29-0.08-1.68-0.04-1.98c0.04-0.3,0.15-0.78,0.49-1.46c0.34-0.68,0.64-1.42,0.64-1.94c0-0.53-0.08-0.64,0.22-0.94
		c0.3-0.31,0.37-0.41,0.4-0.9c0.05-0.48-0.03-0.6,0.12-0.64c0.15-0.04,0.64-0.08,0.64-0.08l0.08,0.94l1.16-0.12
		c0,0-0.12-1.61-0.19-2.06c-0.08-0.46-0.16-0.3,0.07-1.24c0.22-0.93,0.12-2.55,0.12-2.55s0.93,0.07,1.01-0.07
		c0.07-0.15,0.3-1.25,0.3-1.65c0-0.42,0-1.06,0.04-1.5c0.03-0.45,0.59-0.41,0.59-0.41l0.31,0.22v1.16l0.51-0.04
		c0,0,0.16-0.37,0.19-0.6c0.04-0.22-0.04-0.37,0.23-0.3c0.26,0.08,0.52,0.27,0.57,0.38c0.03,0.12,0.74,0.19,0.74,0.19
		s0.23-0.98-0.15-1.2c-0.37-0.23-0.52-0.12-0.86-0.6c-0.34-0.49-0.07-1.01-0.38-1.12c-0.29-0.12-0.82-0.34-0.82-0.34v-0.42
		c0,0,0.78,0.05,0.94,0c0.15-0.03,0.82-0.03,0.82-0.03s-0.14-0.98-0.19-1.12c-0.03-0.15-0.3-0.73-0.3-0.73l-0.04-1.12l0.9,0.03
		c0,0,0.23,0.83,0.31,1.01c0.08,0.19,0.45,0.57,0.63,0.64c0.19,0.08,0.29,0.08,0.53,0.15c0.21,0.07,0.44,0.07,0.44,0.22
		s0.38,0.75,0.38,0.75l0.34,0.16h0.52c0,0-0.29-0.5-0.37-0.79c-0.07-0.3-0.14-0.94-0.26-1.46c-0.1-0.52-0.04-1.39-0.19-1.68
		c-0.14-0.3,0.05-0.34-0.37-0.64c-0.41-0.31-0.48-0.33-0.48-0.64c0-0.3-0.05-1.28-0.05-1.28l0.68,0.12c0,0,0.14,0.07,0.14,0.38
		c0,0.3,0.38,0.3,0.63,0.23c0.26-0.08,0.71-0.42,0.79-0.67c0.07-0.27,0.29-0.41,0.22-0.68c-0.07-0.26,0-0.1-0.22-0.59
		c-0.22-0.48-0.37-0.94-0.37-1.17c0-0.22,0.03-0.71,0.03-1.09c0-0.37-0.19-0.63,0-0.63c0.19,0,1.08-0.03,1.08-0.03
		s0.33-0.34,0.38-0.08c0.04,0.26,0.08,0.41,0.08,0.41l0.48-0.19c0,0,0.23-0.38,0.15-0.68c-0.08-0.3-0.26-0.48-0.33-0.71
		c-0.08-0.22-0.12-1.27-0.12-1.5c0-0.22,0.38-0.68,0.38-0.68s-0.08-0.53,0.08-0.59c0.15-0.08,0.71-0.19,0.71-0.19l0.34-1.73
		L-12-52.9c0,0,0.15-1.05,0.19-1.16c0.04-0.12,0.52-0.65,0.52-0.65l-0.11-0.59c0,0-0.68-0.04-0.74,0.07
		c-0.08,0.11-0.68,0.57-1.13,0.79c-0.45,0.21-3.55,2.35-3.89,2.65c-0.34,0.3-1.09,0.9-1.62,1.24c-0.52,0.34-1.08,0.49-1.35,0.82
		c-0.26,0.34-0.07,0.37-0.56,0.78c-0.48,0.42-0.82,1.17-1.24,1.36c-0.41,0.18-1.16,0.56-1.39,0.6c-0.22,0.03-0.29,0.26-0.48,0.45
		c-0.19,0.18-0.12,0.04-0.3,0.37c-0.19,0.34,0.33-0.15-0.26,0.38c-0.61,0.52-1.96,0.86-2.33,1.16c-0.37,0.3-1.26,0.97-1.65,1.46
		c-0.37,0.48-1.31,1.34-1.91,1.77c-0.59,0.41-0.29,0.25-1.08,0.9c-0.79,0.63-0.97,0.82-1.31,1.04c-0.34,0.22-0.56,0.22-0.9,0.37
		c-0.34,0.15-1.09,0.19-1.09,0.19s-0.45-0.37-0.83-0.56c-0.37-0.19-3.44-3.34-3.85-3.66c-0.42-0.34-2.52-3.23-2.74-3.53
		c-0.22-0.31-1.24-1.42-1.35-1.65c-0.12-0.22-0.71-1.12-0.56-2.17c0.14-1.05,1.38-3.49,1.65-3.85c0.26-0.38,0.41-0.97,0.56-1.16
		c0.16-0.18,0.68-0.42,0.9-0.6c0.23-0.19,0.42,0,0.45-0.41c0.04-0.41,0.12-1.01,0.16-1.35c0.04-0.34,0.04-0.34,0.3-0.42
		c0.25-0.08,0.56-0.23,0.56-0.23s0.25,0.68,0.64,0.6c0.37-0.08,0.89-0.3,0.89-0.3s0.46-0.19,0.15-0.41
		c-0.29-0.22-0.51-0.49-0.67-0.82c-0.15-0.34-0.26-1.23-0.18-1.47c0.08-0.22,0.37-0.52,0.37-0.52s0.46-0.26,0.6-0.49
		c0.15-0.22,0.3-0.63,0.3-0.27c0,0.38,0.04,0.57,0.04,0.79c0,0.22,0.59,0.56,0.59,0.56s0.71-0.22,0.68-0.37
		c-0.04-0.14-0.3-0.41-0.49-0.67c-0.18-0.26-0.52-0.22-0.18-0.52c0.33-0.3,0.78-0.42,0.78-0.42c0.27-0.26,0.72-0.59,0.72-0.93
		s0.33-0.12,0.19-0.79c-0.15-0.66-0.19-1.5-0.19-1.5s-0.42-0.15,0.03-0.22c0.45-0.08,0.79-0.27,0.79-0.27l0.15,0.6l0.71,0.27
		c0,0-0.26-1.23-0.11-1.5c0.15-0.26,0.04-0.34,0.37-0.6c0.34-0.26,0.97-0.64,0.97-0.64s-0.4-0.23-0.4-0.67
		c0-0.45,0.07-0.68,0.07-0.68l1.31-0.48c0,0,0.15-0.08,0.31-0.27c0.15-0.19,0.08-0.38,0.3-0.29c0.23,0.07,1.01-0.12,1.01-0.12
		s0.3-1.01,0.25-1.16c-0.03-0.15-0.4-0.22-0.33-0.56c0.08-0.34,0.27-0.57,0.53-0.94c0.25-0.38,0.22-0.44,0.37-0.48
		c0.15-0.04,0.6,0.19,0.6,0.19l0.41-0.04c0,0,0.18-0.76,0.34-1.13c0.15-0.38,0.52-0.75,0.52-0.75s0.59-0.9,0.78-1.05
		c0.19-0.15,0.19-0.34,0.56-0.67c0.38-0.34,0.98-0.98,0.98-0.98s0.56-0.6,0.56-0.78v-0.83c0-0.38-0.26-0.33,0.19-0.64
		c0.44-0.3,0.55-0.18,0.86-0.55c0.29-0.38,0.29-0.53,0.56-0.64c0.26-0.12,0.48,0.15,0.48,0.15l0.19,0.63c0,0,0.49,0.08,0.68-0.04
		c0.18-0.1,0.71-0.19,0.67-0.38c-0.04-0.18-0.3-0.34-0.38-0.63c-0.08-0.31-0.12-1-0.12-1.38C-20.92-83.92-20.21-84.11-20.21-84.11"
		/>
	<path class="st1" d="M207.35-50.05l-7.19,12.15h5.93L207.35-50.05z M85.19-60.35h-5.7L68.76-35.43c1.65-0.26,6.58-0.97,7.81-1.33
		c1.49-0.45,2.63-1.88,4.31-5.54c1.72-3.63,4.31-10.18,5.63-13.58C87.85-59.22,86.65-60.35,85.19-60.35z M311.24-63.89
		c3.05,0,4.47,2.63,1.5,5.67c-3.05,3.08-33.57,36.42-34.61,37.59c-1.04,1.17-1.52,2.33,0.36,2.33l18.5-0.03l-1.63,4.25h-28.77
		c-3.37,0-4.6-2.3-1.33-5.8c3.21-3.47,34.19-36.84,35.35-38.17c1.23-1.29,0.88-1.88-0.26-1.88h-16.82l1.46-3.95H311.24z
		 M249.58-63.82c0,0-16.69,39.63-17.99,42.35c-1.23,2.79,0.39,3.21,1.91,3.21h10.92l-1.62,4.21l-19.83,0.03
		c-3.69,0-4.99-2.49-3.04-7.13c2.01-4.66,18.44-42.67,18.44-42.67H249.58z M218.89-63.82l-4.21,49.8h-11.01l2.13-20.22h-9.07
		l-13.35,20.22l-10.63,0.03c0,0,30.49-45.04,31.56-46.63c1.11-1.59,3.44-3.21,4.99-3.21H218.89z M189.53-63.82l-21.19,49.84h-11.6
		l21.58-49.84H189.53z M279.81-63.85l-21.19,49.8l-11.67,0.03l21.64-49.83H279.81z M172.36-63.82l-1.62,3.56h-14.71
		c-3.69,0-4.08,1.59-4.89,3.34s-14.55,33.93-15.39,35.68c-0.84,1.72-0.74,3.04,1.68,3.04h11.54h3.43l-1.33,4.24h-23.82
		c-4.25,0-5.09-2.75-3.57-6.41c1.56-3.63,15.88-36.88,16.98-39.73c1.17-2.95,4.31-3.7,7.71-3.73H172.36z M137.43-63.79l-1.75,3.37
		l-13.31,0.03c-3.7,0-4.96,1-6.26,3.79c-1.29,2.75-6.67,15.62-6.67,15.62h14.32l-1.88,3.6H108c0,0-5.32,12.25-6.67,15.29
		c-1.29,3.08-1,3.92,1.24,3.92h11.6h3.43l-1.78,4.21h-23.4c-3.27,0-5.41-1.55-3.34-6.51c2.01-4.99,14.58-34.25,16.33-38.17
		c1.69-3.99,4.41-5.15,8.36-5.15H137.43z M351.26-63.89l-1.75,3.37l-13.32,0.03c-3.69,0-4.93,1-6.22,3.79
		c-1.26,2.72-6.64,15.62-6.64,15.62l14.32-0.03l-1.94,3.6h-13.84c0,0-5.38,12.25-6.68,15.33c-1.3,3.08-1.01,3.92,1.23,3.92h11.6
		h3.37l-1.75,4.18l-23.33,0.03c-3.28,0-5.45-1.56-3.41-6.51c2.04-4.96,14.55-34.25,16.3-38.17c1.75-3.98,4.47-5.15,8.43-5.15H351.26
		z M94.33-63.79c4.11,0,5.96,3.11,4.28,7.65c-1.68,4.5-3.57,8.58-6.41,14.94c-2.82,6.45-4.73,7.16-10.11,7.91
		c-5.32,0.75-15.33,2.11-15.33,2.11L59.2-13.92H48.25l22.07-49.84L94.33-63.79z M64.45-63.75l-1.69,3.47l-16-0.07
		c-2.14,0-3.34,1.29-4.47,3.21c-1.13,1.88-1.49,3.34-2.59,5.67c-1.04,2.33-1.01,4.79,1.03,6.41c2.01,1.59,4.38,3.86,6.48,5.64
		c3.89,3.4,4.93,4.96,1.82,12.12c-2.4,5.51-1.17,3.08-3.31,7.71c-2.11,4.67-4.54,5.67-8.23,5.7H12.15l2.2-4.21h15.68
		c2.86,0,3.63-1.49,4.86-3.95c1.23-2.46,1.62-3.21,3.18-6.84c1.52-3.66,1.94-5.38-0.16-7.45c-2.04-2.04-4.83-4.34-7.94-7.09
		c-3.11-2.78-2.99-3.53-1.39-7.42c1.59-3.95,2.2-5.25,3.72-8.88c1.55-3.66,4.47-3.99,7.45-3.99L64.45-63.75z M352.98-18.32h2.82
		c2.85,0,3.6-1.46,4.64-3.5c1.04-2.04,13.29-30.3,14.64-33.8c1.4-3.53,0.39-4.38-1.75-4.38H366l-17.79,41.67h3.5H352.98z
		 M335.22-14.18l21.38-49.9l27.15-0.03c3.96,0,4.73,4.08,3.6,6.96c-1.17,2.95-14.22,33.05-15.81,36.72
		c-1.53,3.63-3.79,6.22-7.62,6.25H335.22z"/>
</g>
<g class="st2">
	<g class="st3">
		<path class="st4" d="M150.6,134.69c0-1.77,0.69-3.43,1.93-4.69c1.26-1.25,2.92-1.93,4.7-1.93c1.77,0,3.43,0.68,4.7,1.93
			c1.24,1.25,1.93,2.92,1.93,4.69c0,3.66-2.97,6.63-6.63,6.63c-1.77,0-3.43-0.69-4.7-1.94C151.28,138.12,150.6,136.46,150.6,134.69
			 M157.22,142.15c2,0,3.87-0.77,5.28-2.18c1.4-1.41,2.19-3.28,2.19-5.28c0-2-0.79-3.86-2.19-5.28c-1.41-1.4-3.28-2.18-5.28-2.18
			c-4.11,0-7.46,3.35-7.46,7.46c0,2,0.78,3.87,2.18,5.28C153.35,141.38,155.23,142.15,157.22,142.15"/>
		<path class="st4" d="M157.64,134.16c0.84,0,1.26-0.3,1.26-1.06c0-0.41-0.19-1.01-1.15-1.01h-2.03v2.08H157.64z M154.14,130.74
			h3.94c2.07,0,2.45,1.52,2.45,2.19c0,0.86-0.44,1.6-1.2,1.86c0.63,0.27,0.97,0.51,0.97,1.96c0,1.14,0,1.42,0.35,1.55v0.21h-1.81
			c-0.11-0.38-0.16-0.78-0.16-1.57c0-1.07-0.07-1.48-1.27-1.48h-1.68v3.05h-1.59V130.74z"/>
	</g>
	<path class="st5" d="M134.5,30.58c0,0,0.09-0.38,0.43-0.33c0.33,0.05,0.52,0.1,0.52,0.1l0.43-0.23c0,0,0-0.81,0.11-0.81
		c0.09,0,0.19,0.14,0.28-0.05c0.1-0.19,0.14-0.43,0.14-0.43s0.25-0.19,0.19-0.43c-0.04-0.23-0.15-0.47-0.15-0.47
		s0.36-0.15,0.39-0.33c0.04-0.18,0.09-0.52,0.09-0.52l-0.37-0.52l-0.06-0.42l0.19-0.35c0.18-0.32,0.28-0.37,0.28-0.66
		c0-0.28-0.04-0.43,0.14-0.58c0.18-0.13,0.53-0.28,0.71-0.42c0.19-0.13,0.19,0.29,0.76-0.47c0.58-0.76,0.09-0.81,0.66-0.95
		c0.58-0.14,1.04-0.04,1.24-0.43c0.19-0.38,0.19-0.48,0.34-0.85c0.14-0.38,0.18-0.71,0.43-0.81c0.22-0.1,1.28-0.24,1.23-0.48
		c-0.06-0.25,0.29-0.81,0.37-1.18c0.11-0.38,0.25-0.33,0.39-0.43c0.14-0.11,0.43-0.43,0.66-0.53c0.23-0.1,0.38-0.14,0.43-0.44
		c0.04-0.28-0.2-0.89,0.14-1.03c0.33-0.15,0.86-0.25,0.86-0.25s-0.43-0.48,0.19-0.94c0.62-0.47,0.9-0.24,0.96-0.39
		c0.05-0.14,0.13-0.28,0.24-0.47c0.09-0.19,0.14-0.62,0.14-0.81c0-0.2-0.28-0.03,0-0.33c0.28-0.3,0.2,0,0.39-0.38
		c0.18-0.38,0.47-0.48,0.7-0.63c0.25-0.13,0.43-0.28,0.43-0.28l0.19-0.38l0.43-0.28c0,0,0.09-0.34,0.09-0.58
		c0-0.24-0.09-0.43,0.05-0.43c0.14,0,0.28,0.19,0.47,0c0.19-0.19,0.57-0.09,0.57-0.52c0-0.43-0.1-0.67-0.1-0.86
		c0-0.19,0.29-0.56,0.29-0.56s-0.19-0.48-0.05-0.48c0.15,0,0.43-0.05,0.43-0.05s0.15,0.24,0.48,0.2c0.33-0.05,0.47-0.05,0.47-0.05
		s0.2,0.15,0.53,0.28c0.34,0.15,0.82,0.34,0.82,0.48c0,0.15,0.09,0.24,0,0.53c-0.11,0.28,0.51,1.38,0.47,1.57
		c-0.04,0.2-0.04,0.99-0.04,0.99s-0.29,0.67-0.24,0.95c0.04,0.29,0.13,0.57,0.09,0.78c-0.05,0.18,0-0.44-0.19,0.51
		c-0.19,0.95-0.29,0.85-0.24,1.19c0.04,0.33,0.38,0.67,0.38,0.9c0,0.24,0.15,0.57,0.09,0.8c-0.04,0.24-0.09,0.15-0.23,0.63
		c-0.14,0.47,0.39,0.66,0.42,0.9c0.06,0.24,0.53,0.57,0.39,0.95c-0.14,0.38-0.19,0.71-0.19,0.71s0.11,0.34,0.25,0.62
		c0.14,0.29,0.48,0.48,0.48,0.48l0.14,0.28l0.52,1.81l-0.05,1.14l-0.43,0.96c0,0,0.15-0.29-0.23,0.34
		c-0.38,0.61-1.52,1.94-1.76,2.18c-0.25,0.24-0.62,0.49-0.76,0.76c-0.14,0.28-0.2,0.76-0.62,1.14c-0.43,0.39-0.47,0.05-0.76,0.76
		c-0.28,0.71-0.04,0.62-0.38,1.05c-0.33,0.42-0.91,1.66-1.42,1.9c-0.52,0.23-0.62,0.19-0.86,0.58c-0.24,0.38-0.77,1.65-1.24,2.04
		c-0.47,0.37-0.61,0.62-0.85,0.9c-0.24,0.28-0.86,1.1-1.23,1.43c-0.39,0.33-0.95,0.1-1.09,0.72c-0.15,0.61,0.09,1.08-0.25,1.47
		c-0.34,0.38-0.28,0.58-0.62,0.71c-0.33,0.15-1.04,0.28-1.14,0.67c-0.1,0.38-0.43,0.8-0.43,1.05c0,0.24-0.38,0.67-0.61,0.75
		c-0.23,0.1-0.38,0.48-0.38,0.48l-0.29,0.86c0,0-0.47,0.38-0.71,0.48c-0.23,0.1-0.66,0.29-0.76,0.53c-0.09,0.23,0.15-0.05-0.14,0.85
		c-0.29,0.9-0.66,1.29-0.66,1.29s-0.1,0.38-0.48,0.52c-0.38,0.14-0.61,0.04-0.61,0.52c0,0.47,0.04,0.67-0.1,0.86
		c-0.14,0.18-0.96,0.18-0.96,0.18l-0.09,1.14c0,0,0.38-0.38,0.62,0.2c0.24,0.57,1.04,0.9,1.04,0.9l0.06-1.62h0.86
		c0.14,0,0.95-0.04,0.95-0.04l-0.06,0.43l1.1-0.05v-0.77l0.05-0.8c0,0-0.1,0.04,0.46,0c0.58-0.05,0.82-0.15,0.82-0.15
		s0.14-0.14,0.14-0.33c0-0.19,0.14-0.62,0.14-0.62s0.34-0.14,0.42,0.05c0.1,0.19,0,0.29,0.3,0.33c0.28,0.04,0.14,0.38,0.71-0.1
		c0.57-0.47,0.29-0.38,0.67-0.53c0.37-0.14,0.34-0.28,0.66-0.23c0.33,0.05,0.47-1.34,0.47-1.34s0.43-0.04,0.81,0
		c0.38,0.06,0.72-0.75,1-0.94c0.3-0.19,0.63-0.39,1.05-0.58c0.43-0.19,1.39-0.43,1.76-0.67c0.38-0.23,0.67-0.47,0.81-0.76
		c0.14-0.29-0.34-0.14,0.62-0.57c0.95-0.43,1.18-1.19,1.65-1.38c0.48-0.19,1.24-0.47,1.34-0.67c0.08-0.18,0.28-0.42,0.62-0.62
		c0.33-0.19,1.14-0.34,1.8-0.57c0.66-0.24,1.42-0.52,1.67-0.66c0.22-0.15,0.94-0.95,1.14-1c0.19-0.05,0.71-0.29,0.9,0
		c0.18,0.29,0.34,0.43,0.67,0.43c0.32,0,0.47-0.96,1.18-0.96c0.73,0,0.78,0.15,1.38-0.04c0.64-0.19,0.86-0.24,1.2-0.67
		c0.34-0.43,0.67-0.62,0.91-0.66c0.24-0.05,1.28-0.24,1.38-0.1c0.08,0.14,0.94,1.33,1.12,1.57c0.21,0.25,3.82,6.32,4.25,6.89
		c0.42,0.58,1.37,2.57,1.37,3.28c0,0.71,0.24,1.85,0.14,2.43c-0.09,0.57-2.09,2.52-2.27,3.18c-0.2,0.67-1.23,1.85-1.57,2.47
		c-0.34,0.61-0.48,1.05-0.95,1.81c-0.47,0.76-5.13,8.36-5.66,9.07c-0.52,0.71-8.08,14.84-8.31,15.4c-0.24,0.58-3.33,7.05-3.81,7.85
		c-0.48,0.8-4.62,9.07-5,10.02c-0.38,0.96-1.05,3.48-1.38,4.23c-0.32,0.76-2.66,7.65-3.08,8.8c-0.42,1.13-0.57,1.65-0.95,2.08
		c-0.38,0.43-0.76,0.68-0.76,1.1c0,0.43,0.29,1.38,0,1.76c-0.28,0.39-0.77,0.95-0.77,1.43c0,0.47-0.19,3.38-0.19,4.27
		c0,0.92-0.04,3.72-0.38,4.38c-0.33,0.67-0.61,1.96-0.76,2.8c-0.15,0.86-0.28,9.51-0.38,10.56c-0.09,1.05,0.14,3.66,0.23,4.8
		c0.1,1.14,0.77,4.66,0.91,5.14c0.14,0.47,1.24,2.99,1.48,3.47c0.23,0.47,0.48,1,0.56,1.52c0.1,0.52,0.71,0.61,0.71,1.08
		c0,0.48,0.16,0.85,0.43,1.53c0.29,0.67,1.1,1.47,1.44,2.05c0.33,0.56,0.37,0.9,0.37,1.48c0,0.56,0.33,1.04-0.13,1.19
		c-0.48,0.14-0.9-0.1-1-0.28c-0.1-0.2-0.71-0.68-0.89-1.24c-0.21-0.58-0.43-1.52-0.43-1.52s-1.38-1.48-1.81-1.99
		c-0.43-0.52-0.34-0.3-0.72-0.91c-0.38-0.61-0.52-0.9-0.7-0.9c-0.21,0-0.34,0.43-0.86,0.37c-0.52-0.05-0.67-0.18-0.95-0.48
		c-0.29-0.28-0.62-1.42-1.38-2.09c-0.77-0.66-1.23-1.57-1.53-1.94c-0.28-0.38-0.13-0.52-0.28-1.1c-0.13-0.56-0.06-0.71-0.28-0.95
		c-0.24-0.22-1.09-1.14-1.09-1.14s-1.37-1.42-1.62-1.95c-0.24-0.52-0.94-1.76-1.09-2.14c-0.14-0.38-0.8-1.38-0.86-1.57
		c-0.06-0.19,0.09-0.58-0.14-0.75c-0.24-0.2-0.67,0.04-0.95-0.3c-0.3-0.33-0.15-0.79-0.48-1.04c-0.33-0.24-0.67-0.37-1-0.75
		c-0.33-0.39-0.76-1.05-0.95-1.39c-0.19-0.32,0.1-0.42-0.48-0.94c-0.56-0.53-0.66-0.57-0.75-0.99c-0.11-0.43-0.06-1.76-0.14-2.47
		c-0.11-0.72-0.49-1.15-0.49-1.15l0.56-0.67c0,0-0.28-0.85-0.22-1.37c0.04-0.52-0.1-3.66-0.19-4.08c-0.09-0.43-0.14-0.82-0.28-1.38
		c-0.14-0.57-0.43-0.52-0.14-1c0.28-0.47,0.14-0.62,0.52-0.62c0.38,0,0.44-0.38,0.76,0.1c0.33,0.47,0.86,0.86,0.86,0.86
		s0.9,0.04,0.95-0.2c0.05-0.24-0.19-0.85-0.48-1.08c-0.28-0.25-0.71,0.04-0.62-0.63c0.1-0.65,0.1-0.65,0.24-0.86
		c0.14-0.19,0.14-1.14,0.14-1.14s-0.9-0.04-1.13-0.14c-0.24-0.09-0.4-0.63-0.4-0.99c0-0.39,0.3-0.44,0.5-0.63
		c0.18-0.19,0.57-0.29,0.76-0.67c0.18-0.38,0.51-0.71,0.42-1.18c-0.1-0.48,0-1.81,0-1.81s0.76-0.43,0.8-0.62
		c0.05-0.2,0.05-0.2,0.1-0.57c0.06-0.37-0.1-2.13-0.05-2.52c0.05-0.38,0.19-0.99,0.62-1.85c0.43-0.86,0.81-1.81,0.81-2.47
		c0-0.67-0.1-0.81,0.28-1.19c0.38-0.39,0.47-0.52,0.51-1.14c0.06-0.61-0.04-0.76,0.15-0.81c0.19-0.05,0.81-0.1,0.81-0.1l0.11,1.2
		l1.47-0.15c0,0-0.15-2.04-0.24-2.61c-0.11-0.58-0.2-0.38,0.09-1.57c0.28-1.18,0.15-3.23,0.15-3.23s1.18,0.09,1.28-0.09
		c0.09-0.19,0.38-1.58,0.38-2.09c0-0.52,0-1.34,0.05-1.91c0.04-0.57,0.75-0.51,0.75-0.51l0.39,0.28v1.47l0.65-0.05
		c0,0,0.2-0.47,0.24-0.77c0.04-0.28-0.04-0.47,0.29-0.38c0.33,0.1,0.67,0.34,0.72,0.48c0.04,0.15,0.94,0.25,0.94,0.25
		s0.29-1.25-0.19-1.53c-0.47-0.29-0.66-0.15-1.09-0.77c-0.43-0.62-0.09-1.29-0.48-1.42c-0.37-0.15-1.04-0.43-1.04-0.43v-0.53
		c0,0,0.99,0.06,1.19,0c0.19-0.04,1.05-0.04,1.05-0.04s-0.18-1.24-0.24-1.43c-0.04-0.19-0.38-0.92-0.38-0.92l-0.05-1.42l1.14,0.04
		c0,0,0.29,1.05,0.39,1.29c0.1,0.24,0.57,0.72,0.81,0.81c0.23,0.1,0.37,0.1,0.67,0.19c0.27,0.09,0.56,0.09,0.56,0.27
		c0,0.19,0.48,0.95,0.48,0.95l0.43,0.2h0.66c0,0-0.37-0.63-0.47-1.01c-0.09-0.39-0.18-1.19-0.33-1.86
		c-0.13-0.66-0.05-1.76-0.24-2.13c-0.18-0.38,0.06-0.43-0.47-0.81c-0.52-0.39-0.61-0.42-0.61-0.82c0-0.38-0.06-1.62-0.06-1.62
		l0.86,0.15c0,0,0.18,0.09,0.18,0.48c0,0.38,0.48,0.38,0.8,0.29c0.33-0.1,0.9-0.53,1.01-0.86c0.09-0.34,0.37-0.52,0.28-0.87
		c-0.09-0.32,0-0.13-0.28-0.75c-0.28-0.61-0.47-1.19-0.47-1.49c0-0.27,0.04-0.9,0.04-1.38c0-0.47-0.25-0.81,0-0.81
		c0.24,0,1.37-0.04,1.37-0.04s0.42-0.43,0.47-0.1c0.05,0.33,0.1,0.52,0.1,0.52l0.61-0.24c0,0,0.29-0.48,0.19-0.86
		c-0.1-0.38-0.33-0.62-0.42-0.9c-0.1-0.28-0.15-1.61-0.15-1.9c0-0.28,0.48-0.86,0.48-0.86s-0.1-0.67,0.1-0.75
		c0.19-0.1,0.9-0.24,0.9-0.24l0.43-2.2l0.85-0.23c0,0,0.19-1.34,0.24-1.47c0.04-0.15,0.66-0.82,0.66-0.82l-0.13-0.75
		c0,0-0.86-0.06-0.95,0.09c-0.11,0.14-0.87,0.72-1.44,1c-0.57,0.27-4.5,2.98-4.93,3.37c-0.44,0.38-1.39,1.14-2.05,1.57
		c-0.67,0.43-1.37,0.62-1.71,1.05c-0.33,0.43-0.09,0.47-0.71,0.99c-0.61,0.53-1.04,1.49-1.57,1.72c-0.52,0.23-1.47,0.71-1.77,0.76
		c-0.28,0.03-0.37,0.33-0.61,0.57c-0.24,0.23-0.15,0.04-0.38,0.47c-0.24,0.43,0.42-0.19-0.33,0.48c-0.77,0.66-2.48,1.09-2.96,1.47
		c-0.47,0.38-1.6,1.23-2.09,1.85c-0.47,0.61-1.66,1.7-2.43,2.24c-0.75,0.52-0.37,0.32-1.37,1.14c-1,0.8-1.24,1.05-1.66,1.33
		c-0.44,0.28-0.72,0.28-1.15,0.47c-0.43,0.19-1.38,0.24-1.38,0.24s-0.57-0.47-1.05-0.71c-0.47-0.24-4.37-4.23-4.89-4.65
		c-0.53-0.43-3.19-4.1-3.47-4.47c-0.28-0.39-1.57-1.8-1.71-2.09c-0.15-0.28-0.9-1.42-0.71-2.76c0.18-1.33,1.75-4.42,2.09-4.89
		c0.33-0.49,0.52-1.23,0.7-1.47c0.21-0.23,0.86-0.53,1.14-0.77c0.29-0.24,0.53,0,0.58-0.52c0.05-0.53,0.15-1.29,0.2-1.71
		c0.05-0.43,0.05-0.43,0.38-0.53c0.32-0.1,0.72-0.29,0.72-0.29s0.32,0.86,0.81,0.77c0.47-0.1,1.13-0.38,1.13-0.38
		s0.58-0.24,0.19-0.53c-0.37-0.28-0.65-0.62-0.85-1.04c-0.2-0.43-0.33-1.57-0.24-1.86c0.1-0.28,0.47-0.66,0.47-0.66
		s0.58-0.33,0.76-0.63c0.19-0.28,0.39-0.8,0.39-0.34c0,0.49,0.05,0.73,0.05,1.01c0,0.28,0.75,0.71,0.75,0.71s0.9-0.28,0.86-0.47
		c-0.05-0.18-0.39-0.52-0.62-0.85c-0.23-0.33-0.67-0.29-0.23-0.66c0.42-0.38,0.99-0.53,0.99-0.53c0.34-0.33,0.92-0.75,0.92-1.18
		c0-0.43,0.42-0.15,0.23-1.01c-0.2-0.84-0.23-1.9-0.23-1.9s-0.53-0.19,0.04-0.28c0.57-0.1,1-0.34,1-0.34l0.19,0.76l0.9,0.34
		c0,0-0.33-1.57-0.13-1.91c0.19-0.33,0.04-0.43,0.47-0.76c0.43-0.33,1.23-0.81,1.23-0.81s-0.51-0.29-0.51-0.86
		c0-0.57,0.09-0.86,0.09-0.86l1.66-0.61c0,0,0.19-0.11,0.39-0.34c0.19-0.23,0.1-0.47,0.38-0.38c0.29,0.09,1.28-0.15,1.28-0.15
		s0.38-1.28,0.32-1.47c-0.04-0.19-0.5-0.28-0.42-0.71c0.1-0.43,0.34-0.72,0.67-1.2c0.32-0.48,0.28-0.56,0.47-0.61
		c0.19-0.05,0.76,0.25,0.76,0.25l0.53-0.04c0,0,0.23-0.96,0.43-1.43c0.19-0.48,0.66-0.95,0.66-0.95s0.75-1.14,0.99-1.33
		c0.24-0.19,0.24-0.43,0.71-0.85c0.48-0.43,1.24-1.24,1.24-1.24s0.71-0.76,0.71-0.99v-1.05c0-0.48-0.33-0.43,0.25-0.81
		c0.56-0.38,0.7-0.23,1.09-0.7c0.37-0.48,0.37-0.67,0.71-0.81c0.33-0.15,0.61,0.19,0.61,0.19l0.25,0.8c0,0,0.62,0.1,0.86-0.05
		c0.23-0.13,0.9-0.23,0.85-0.48c-0.05-0.23-0.38-0.43-0.48-0.8c-0.1-0.39-0.15-1.27-0.15-1.76C133.59,30.82,134.5,30.58,134.5,30.58
		"/>
</g>
</svg>
