<?xml version="1.0" encoding="utf-8"?>
<!-- Generator: Adobe Illustrator 24.2.0, SVG Export Plug-In . SVG Version: 6.00 Build 0)  -->
<svg version="1.1" id="Capa_1" xmlns="http://www.w3.org/2000/svg" xmlns:xlink="http://www.w3.org/1999/xlink" x="0px" y="0px"
	 viewBox="0 0 595.28 841.89" style="enable-background:new 0 0 595.28 841.89;" xml:space="preserve">
<style type="text/css">
	.st0{display:none;fill-rule:evenodd;clip-rule:evenodd;stroke:#000000;stroke-width:0.5669;stroke-miterlimit:22.9256;}
	.st1{fill-rule:evenodd;clip-rule:evenodd;fill:#FFFFFF;}
	.st2{fill-rule:evenodd;clip-rule:evenodd;}
	.st3{fill-rule:evenodd;clip-rule:evenodd;fill:#FF0000;}
</style>
<g>
	<polygon class="st0" points="72.28,371.17 521.78,371.17 521.78,470.67 72.28,470.67 72.28,371.17 	"/>
	<path class="st1" d="M447.7,409.88c7.29-8.58,20.04-12.93,30.72-13.64c7.67-0.52,15.82,0.57,22.79,3.9
		c5.97,2.85,11.3,7.54,13.25,14.05c0.5,1.67,0.75,3.39,0.75,5.13c0,7.91-5.03,14.5-11.22,18.95c-7.16,5.15-16.26,7.89-25,8.48
		c-7.67,0.52-15.82-0.57-22.79-3.9c-5.59-2.67-10.62-6.95-12.83-12.83l-3.51,15.48H382.3l-0.04,0.38h-26.97l6.64-30.05
		c0.02-0.07,0.06-0.3,0.02-0.38c-0.2-0.38-1.1-0.78-1.48-0.92c-1.26-0.45-2.75-0.58-4.07-0.49c-1.45,0.1-4.75,0.76-5.2,2.5
		l-7.47,29.17l-25.38-0.75l2.49-11.59l-3.7,2.6l-0.02,0.02l-0.01,0l-1.99,1.4c-7.34,5.17-16.65,7.84-25.57,8.25
		c-7.47,0.35-15.37-0.86-22.1-4.24c-5.77-2.9-10.85-7.56-12.69-13.93c-0.55-1.9-0.78-3.88-0.68-5.85c0.01-0.21,0.02-0.42,0.04-0.63
		l-18.56,23.53h-23.27l-18.15-49h28.25l6.38,23.83l16.79-23.58h28.46l-3.66,4.64c6.39-3.29,13.7-5.04,20.78-5.37
		c7.47-0.35,15.37,0.86,22.1,4.24c5.35,2.69,10.09,6.89,12.23,12.55l3.35-15.56h24.75l-0.21,2.15c3.3-1.32,6.93-1.98,10.34-2.21
		c6.21-0.41,17.81,0.56,22.03,6.15c2.96,2.86,2.76,7.85,2.34,11.63c-0.43,3.87-1.27,7.8-2.13,11.64l20.17-10.89h-18.11l4.95-18.15
		l56.47,0.29L447.7,409.88L447.7,409.88z M442.59,418.24l-17.73,9.37h17.79c-0.29-1.3-0.44-2.62-0.44-3.96
		c0-1.37,0.16-2.73,0.46-4.07l0.11-0.48l-0.54-0.18L442.59,418.24L442.59,418.24z"/>
	<path class="st2" d="M291.36,399.28c17.68-0.82,31.57,7.95,31.02,19.58c-0.21,4.53-2.58,8.82-6.44,12.42l-40.05-10.64
		c-3.69,7.06,8.37,13.81,20,8.44l16.79,4.84c-6.01,4.23-14.28,7.07-23.32,7.48c-17.68,0.82-31.57-7.95-31.02-19.58
		C258.9,410.19,273.68,400.1,291.36,399.28L291.36,399.28z M305.23,418.71c0.57-8.35-14.72-11.72-23.34-6.25L305.23,418.71
		L305.23,418.71z"/>
	<polygon class="st2" points="215.27,440.27 200.27,399.77 219.14,399.77 226.45,427.06 228.52,427.06 247.77,400.02 265.27,400.02 
		233.52,440.27 215.27,440.27 	"/>
	<path class="st2" d="M323.58,440.86l8.68-40.34h16.62l-0.5,5.13l1.3,0c8.34-8.11,29.54-5.76,32.85-0.44
		c4.64,3.51-2.73,24.27-4.09,36.41h-17.88l5.5-24.88c1.17-8.79-15.79-9.21-19-1.25l-6.63,25.88L323.58,440.86L323.58,440.86z"/>
	<polygon class="st2" points="444.58,401.11 396.21,400.86 393.58,410.49 422.96,410.49 388.21,429.24 386.33,441.24 436.46,441.24 
		438.58,431.86 407.71,431.86 442.96,413.24 444.58,401.11 	"/>
	<path class="st2" d="M478.71,400.48c17.81-1.2,32.25,7.24,32.25,18.85s-14.44,21.98-32.25,23.18c-17.81,1.2-32.25-7.24-32.25-18.85
		c0-1.06,0.12-2.11,0.35-3.14l17.54,5.62c1.54,4.54,7.47,7.39,14.55,6.6c8.25-0.92,14.94-6.44,14.94-12.33s-6.69-9.91-14.94-8.98
		c-7.38,0.83-13.52,5.34-14.72,10.49l-15.86-5.42C452.75,408.06,464.68,401.42,478.71,400.48L478.71,400.48z"/>
	<path class="st3" d="M478.64,415.62c4.25,0,7.69,2.64,7.69,5.91c0,3.26-3.44,5.91-7.69,5.91c-4.25,0-7.69-2.64-7.69-5.91
		C470.96,418.26,474.4,415.62,478.64,415.62L478.64,415.62z"/>
	<path class="st1" d="M184.52,391h2.54l2.65,16.91l-21.46-3.85c12.94,2.93,28.02,10.1,27.27,14.72l-0.91,4.24
		c3.19,2.26,6.33,6.52,6.02,10.66l-0.33,4.35c3.04,2.46,5.11,5.75,5.09,10.34l-0.02,4.23h-38.03l-16.17,13.92l-11.11,0.1l-1.12-1.96
		l-9.19-0.73l1.1-3.86l-2.2-1.57l-12.31-9.34l15.62,0.69l4.08,0.34l0.3-0.33l0.54-10.74l-15.41-8.01h-1.57l-10.3,4.33l3.96,20.29
		l-19.83-18.92l-15.55-4.24l-3.33-9.42l1.96-8.19l20.94-10.47v-5.67l25.2-13.46l34.47,0.25l18.74-10.37h8.35V391L184.52,391z"/>
	<path class="st2" d="M177.27,379.47l-18.75,10.38l-34.5-0.25l-22,11.75v5.75L80.5,417.86l-1.21,5.04l2.17,6.13l14.44,3.94
		l10.94,10.44l-2.06-10.56l14.28-6h3.47l18.75,9.75l-0.75,15l-2.75,3l-6.08-0.51l-1.92-0.09l1.41,1.07l4.59,3.28l-0.5,1.75l6.25,0.5
		l1,1.75l7.06-0.06l16.19-13.94h35.38c0.05-11.44-19.66-11.88-29.49-17.81l-0.08-1.2l24.82,4.01c0.53-6.94-19.45-12.8-30.81-17.18
		l0-0.93l25.75,4.11c1-6.21-20.98-12.55-31.82-17.17l0.05-0.89l27.34,4.06l-3-10.09h-3.62v-15.78H177.27L177.27,379.47z"/>
	<polygon class="st3" points="114.78,399.88 130.53,401.06 110.72,405.5 110.85,403.25 114.78,399.88 	"/>
</g>
</svg>
