<?xml version="1.0" standalone="no"?>
<!DOCTYPE svg PUBLIC "-//W3C//DTD SVG 20010904//EN"
 "http://www.w3.org/TR/2001/REC-SVG-20010904/DTD/svg10.dtd">
<svg version="1.0" xmlns="http://www.w3.org/2000/svg"
 width="1800.000000pt" height="200.000000pt" viewBox="0 0 1800.000000 200.000000"
 preserveAspectRatio="xMidYMid meet">
<metadata>
Created by potrace 1.16, written by Peter Selinger 2001-2019
</metadata>
<g transform="translate(0.000000,200.000000) scale(0.100000,-0.100000)"
fill="#000000" stroke="none">
<path d="M16878 1640 c-201 -36 -334 -122 -394 -253 -25 -54 -29 -74 -29 -154
0 -85 2 -94 30 -134 73 -104 154 -137 435 -179 107 -16 221 -37 253 -47 118
-34 151 -106 82 -182 -65 -72 -196 -107 -364 -99 -165 9 -264 58 -311 155 -14
29 -29 52 -35 52 -5 1 -57 -14 -115 -32 -69 -21 -106 -38 -108 -48 -7 -35 42
-134 90 -185 100 -106 249 -154 480 -154 287 0 475 74 573 224 73 111 88 281
32 365 -60 91 -159 131 -442 177 -238 39 -301 55 -338 85 -59 45 -18 135 82
177 100 44 309 46 425 6 58 -20 119 -78 136 -128 6 -20 17 -36 24 -36 33 0
211 68 214 82 5 26 -39 128 -72 166 -44 51 -109 89 -201 118 -69 23 -101 27
-240 30 -88 1 -181 -1 -207 -6z"/>
<path d="M950 1615 c-244 -46 -371 -152 -410 -338 -33 -161 52 -283 235 -336
39 -11 149 -32 245 -46 220 -32 299 -55 334 -96 30 -35 32 -58 11 -99 -20 -40
-71 -76 -141 -103 -82 -30 -322 -32 -399 -3 -80 31 -128 69 -159 128 -16 29
-30 55 -32 57 -3 4 -234 -68 -234 -73 0 -2 9 -33 20 -69 35 -112 128 -193 286
-247 85 -29 252 -42 383 -30 185 17 305 64 403 158 144 137 169 366 51 473
-74 67 -151 92 -406 134 -248 41 -310 57 -343 90 -28 28 -29 43 -10 90 31 73
145 115 316 115 204 0 322 -59 347 -173 3 -15 11 -26 17 -24 6 2 56 19 111 37
55 18 103 35 107 39 4 3 -3 37 -16 74 -38 114 -135 191 -291 232 -85 23 -329
29 -425 10z"/>
<path d="M4961 1619 c-145 -28 -281 -99 -378 -196 -59 -60 -82 -91 -122 -175
-64 -134 -86 -230 -85 -378 0 -128 15 -192 63 -275 57 -99 133 -158 258 -202
73 -26 89 -28 238 -27 136 0 172 3 240 22 200 57 342 168 423 332 23 47 42 91
42 98 0 9 -31 12 -113 12 l-114 0 -32 -50 c-43 -66 -102 -116 -186 -156 -133
-64 -284 -68 -408 -11 -181 83 -227 306 -112 546 80 166 244 261 450 261 95 0
164 -18 225 -59 46 -31 100 -102 100 -133 0 -16 10 -18 120 -18 66 0 120 3
120 8 0 4 -7 38 -15 75 -35 167 -145 273 -330 322 -65 17 -306 19 -384 4z"/>
<path d="M11876 1608 c-6 -18 -196 -1180 -196 -1196 0 -11 80 -13 428 -10 379
3 435 6 495 22 207 57 327 214 315 414 -5 88 -29 143 -80 188 l-34 30 43 32
c52 40 87 98 109 182 43 168 -19 280 -181 326 -51 15 -122 18 -477 22 -343 3
-419 1 -422 -10z m776 -208 c73 -21 96 -85 58 -168 -15 -34 -29 -48 -67 -65
-45 -21 -64 -22 -331 -25 -271 -3 -284 -3 -279 15 3 10 13 65 22 123 9 58 18
111 20 118 5 15 521 17 577 2z m-49 -480 c55 -20 87 -62 87 -113 -1 -88 -59
-163 -145 -186 -24 -7 -148 -11 -317 -11 -258 0 -278 1 -278 18 0 9 11 82 25
162 14 80 25 146 25 148 0 2 127 2 283 -1 202 -3 293 -8 320 -17z"/>
<path d="M13315 1598 c-7 -29 -195 -1176 -195 -1189 0 -5 51 -9 115 -9 111 0
115 1 119 23 7 29 196 1180 196 1190 0 4 -52 7 -115 7 -111 0 -115 -1 -120
-22z"/>
<path d="M13766 1028 c-54 -326 -99 -601 -102 -610 -5 -16 5 -18 114 -18 l119
0 27 173 c15 94 29 179 32 188 4 16 240 205 266 214 8 2 84 -109 193 -285
l180 -289 153 -1 c146 0 152 1 143 19 -6 10 -112 173 -236 362 -124 188 -225
346 -225 350 0 3 137 112 305 240 167 129 304 237 305 242 0 4 -73 7 -162 7
l-163 -1 -350 -273 c-192 -151 -352 -273 -353 -271 -3 3 71 475 82 528 4 15
-7 17 -113 17 l-118 0 -97 -592z"/>
<path d="M15290 1616 c0 -6 -190 -1160 -196 -1189 l-6 -27 525 0 525 0 6 27
c10 48 26 157 26 176 0 16 -26 17 -406 17 l-406 0 6 28 c3 15 12 70 21 122 9
52 18 107 21 123 l6 27 342 0 343 0 12 83 c7 45 15 94 18 110 l6 27 -342 0
c-266 0 -341 3 -341 13 0 14 27 187 36 230 l6 27 397 0 398 0 13 78 c6 42 14
89 17 105 l6 27 -517 0 c-284 0 -516 -2 -516 -4z"/>
<path d="M5881 1548 c-6 -35 -14 -84 -17 -110 l-7 -48 252 0 c140 0 251 -4
251 -9 0 -5 -36 -228 -80 -495 -44 -268 -80 -489 -80 -491 0 -3 52 -5 115 -5
111 0 115 1 120 23 3 12 40 236 83 497 l79 475 255 3 255 2 12 83 c7 45 15 94
18 110 l6 27 -626 0 -625 0 -11 -62z"/>
<path d="M7233 1003 c-56 -335 -100 -608 -99 -608 0 0 53 1 117 3 l116 3 39
235 38 234 171 0 171 0 125 -235 124 -235 143 0 c78 0 142 2 142 3 0 2 -58
111 -130 242 -71 131 -130 239 -130 240 0 1 19 5 41 8 65 9 161 61 213 117
108 115 154 319 101 445 -17 42 -71 94 -119 115 -81 34 -164 40 -568 40 l-395
0 -100 -607z m878 388 c136 -42 106 -251 -44 -296 -40 -12 -109 -15 -320 -15
l-269 0 5 23 c3 12 16 87 28 166 l22 143 271 -5 c156 -3 286 -9 307 -16z"/>
<path d="M8760 1604 c0 -3 -27 -168 -61 -367 -54 -323 -60 -374 -57 -472 3
-95 8 -118 32 -172 49 -107 142 -175 283 -207 94 -21 316 -22 421 -1 216 43
383 188 451 391 11 34 48 225 81 425 33 200 62 374 65 387 5 22 5 22 -113 22
l-119 0 -61 -367 c-35 -214 -69 -392 -82 -426 -30 -79 -75 -136 -140 -175 -82
-48 -121 -57 -265 -57 -114 0 -136 3 -180 23 -101 46 -139 107 -138 222 1 41
26 227 57 413 31 186 56 344 56 352 0 12 -21 15 -115 15 -63 0 -115 -2 -115
-6z"/>
<path d="M10266 1583 c-3 -16 -46 -275 -96 -578 -49 -302 -93 -562 -96 -578
l-6 -27 105 0 104 0 74 446 73 446 105 -446 105 -446 96 0 95 1 244 434 c135
239 246 433 248 431 2 -2 -28 -193 -67 -424 -38 -232 -70 -426 -70 -432 0 -7
34 -10 102 -8 l103 3 97 585 c53 322 97 593 98 603 0 16 -12 17 -152 15 l-151
-3 -246 -433 c-187 -330 -247 -429 -253 -415 -7 15 -198 836 -198 849 0 2 -69
4 -154 4 l-154 0 -6 -27z"/>
<path d="M1965 1568 c-3 -18 -46 -278 -95 -578 -50 -300 -93 -557 -96 -573
l-6 -27 119 0 119 0 33 208 c18 114 35 217 38 228 4 21 9 21 306 27 235 4 315
9 362 21 181 50 273 148 311 336 33 166 -8 284 -120 342 -82 42 -149 48 -568
48 l-397 0 -6 -32z m764 -189 c63 -13 101 -53 101 -106 0 -91 -53 -172 -125
-192 -59 -16 -585 -15 -585 2 0 6 11 77 25 157 14 80 25 146 25 148 0 8 518 0
559 -9z"/>
<path d="M3305 1568 c-3 -18 -46 -278 -95 -578 -49 -300 -92 -557 -94 -572
l-5 -28 524 0 c289 0 525 1 525 3 0 1 7 40 15 87 8 47 15 93 15 103 0 16 -26
17 -405 17 -223 0 -405 1 -405 3 0 1 11 67 25 147 14 80 25 148 25 153 0 4
155 7 344 7 l343 0 13 78 c6 42 14 89 17 105 l6 27 -342 0 c-318 0 -341 1
-341 18 0 9 9 69 20 132 11 63 20 116 20 118 0 1 179 2 399 2 l398 0 13 78 c6
42 14 89 17 105 l6 27 -516 0 -516 0 -6 -32z"/>
</g>
</svg>
