<?xml version="1.0" encoding="utf-8"?>
<!-- Generator: Adobe Illustrator 24.2.0, SVG Export Plug-In . SVG Version: 6.00 Build 0)  -->
<svg version="1.1" id="Capa_1" xmlns="http://www.w3.org/2000/svg" xmlns:xlink="http://www.w3.org/1999/xlink" x="0px" y="0px"
	 viewBox="0 0 335.8 335.8" style="enable-background:new 0 0 335.8 335.8;" xml:space="preserve">
<style type="text/css">
	.st0{fill:#666666;}
</style>
<g>
	<path class="st0" d="M290.8,291.6H45c-24.8,0-45-20.2-45-45V89.2c0-24.8,20.2-45,45-45h245.8c24.8,0,45,20.2,45,45v157.5
		C335.8,271.4,315.6,291.6,290.8,291.6z M45,57c-17.7,0-32.1,14.4-32.1,32.1v157.5c0,17.7,14.4,32.1,32.1,32.1h245.8
		c17.7,0,32.1-14.4,32.1-32.1V89.2c0-17.7-14.4-32.1-32.1-32.1H45z M231.7,82c16,0,29,13,29,29s-13,29-29,29s-29-13-29-29
		S215.7,82,231.7,82z M272.2,82c16,0,29,13,29,29s-13,29-29,29c-16,0-29-13-29-29S256.2,82,272.2,82z M34.5,216.6h53.5v19.3H34.5
		V216.6z M105.6,216.6h53.5v19.3h-53.5V216.6z M176.7,216.6h53.5v19.3h-53.5V216.6z M247.7,216.6h53.5v19.3h-53.5V216.6z M34.5,82
		h101.2v19.3H34.5V82z M34.5,120.2h53.5v19.3H34.5V120.2z"/>
</g>
</svg>
